<svg width="106" height="24" viewBox="0 0 106 24" fill="none" xmlns="http://www.w3.org/2000/svg">
<g clip-path="url(#clip0_6_51)">
<path d="M9 19C9 19.5304 9.21071 20.0391 9.58579 20.4142C9.96086 20.7893 10.4696 21 11 21C11.5304 21 12.0391 20.7893 12.4142 20.4142C12.7893 20.0391 13 19.5304 13 19C13 18.4696 12.7893 17.9609 12.4142 17.5858C12.0391 17.2107 11.5304 17 11 17C10.4696 17 9.96086 17.2107 9.58579 17.5858C9.21071 17.9609 9 18.4696 9 19Z" stroke="white" stroke-width="2" stroke-linecap="round" stroke-linejoin="round"/>
<path d="M6 16L9 18" stroke="white" stroke-width="2" stroke-linecap="round" stroke-linejoin="round"/>
<path d="M12 17L20 5" stroke="white" stroke-width="2" stroke-linecap="round" stroke-linejoin="round"/>
<path d="M17 10L19 11" stroke="white" stroke-width="2" stroke-linecap="round" stroke-linejoin="round"/>
<path d="M9.592 4.695L12.898 6.799C13.0425 6.89089 13.1675 7.01044 13.2656 7.15076C13.3638 7.29109 13.4333 7.44943 13.4701 7.6167C13.5069 7.78396 13.5103 7.95684 13.4801 8.12542C13.4498 8.29399 13.3866 8.45494 13.294 8.599L10.2 13.41C10.0141 13.6993 9.72123 13.9032 9.38537 13.9771C9.04951 14.0509 8.69808 13.9887 8.408 13.804L5.102 11.7C4.95748 11.6081 4.83254 11.4886 4.73436 11.3482C4.63618 11.2079 4.56669 11.0496 4.5299 10.8823C4.4931 10.715 4.48971 10.5422 4.51994 10.3736C4.55016 10.205 4.61339 10.0441 4.706 9.9L7.8 5.09C7.98585 4.80067 8.27877 4.59676 8.61463 4.52291C8.95049 4.44907 9.30193 4.51031 9.592 4.695Z" stroke="white" stroke-width="2" stroke-linecap="round" stroke-linejoin="round"/>
</g>
<path d="M26.6836 19.0039C26.2279 19.0039 26 18.7598 26 18.2715V5.73242C26 5.24414 26.2279 5 26.6836 5H29.5156C29.8932 5 30.1634 5.26042 30.3262 5.78125L32.9727 14.3457C33.0898 14.7168 33.1712 15.0228 33.2168 15.2637C33.2624 15.498 33.3014 15.778 33.334 16.1035H33.3926C33.4251 15.778 33.4642 15.498 33.5098 15.2637C33.5553 15.0228 33.6367 14.7168 33.7539 14.3457L36.4004 5.78125C36.5632 5.26042 36.8333 5 37.2109 5H40.043C40.4987 5 40.7266 5.24414 40.7266 5.73242V18.2715C40.7266 18.7598 40.4987 19.0039 40.043 19.0039H38.5586C38.1029 19.0039 37.875 18.7598 37.875 18.2715V10.2051C37.875 9.81445 37.8913 9.42383 37.9238 9.0332H37.8555L35.0332 18.2129C34.8704 18.7402 34.5905 19.0039 34.1934 19.0039H32.5332C32.1361 19.0039 31.8561 18.7402 31.6934 18.2129L28.8711 9.0332H28.8027C28.8353 9.42383 28.8516 9.81445 28.8516 10.2051V18.2715C28.8516 18.7598 28.6237 19.0039 28.168 19.0039H26.6836Z" fill="white"/>
<path d="M44.2461 19.3359C43.7904 19.3359 43.5625 19.0918 43.5625 18.6035V6.06445C43.5625 5.57617 43.7904 5.33203 44.2461 5.33203H47.8984C50.2422 5.33203 51.8665 5.71289 52.7715 6.47461C53.6829 7.23633 54.1387 8.31706 54.1387 9.7168C54.1387 11.1165 53.6829 12.1973 52.7715 12.959C51.8665 13.7207 50.2422 14.1016 47.8984 14.1016H46.4141V18.6035C46.4141 19.0918 46.1862 19.3359 45.7305 19.3359H44.2461ZM46.4141 11.7188H47.8887C49.1908 11.7188 50.0762 11.5658 50.5449 11.2598C51.0137 10.9473 51.248 10.4329 51.248 9.7168C51.248 9.00065 51.0137 8.48958 50.5449 8.18359C50.0762 7.87109 49.1908 7.71484 47.8887 7.71484H46.4141V11.7188Z" fill="white"/>
<path d="M57.2148 19.3359C56.7591 19.3359 56.5312 19.0918 56.5312 18.6035V6.06445C56.5312 5.57617 56.7591 5.33203 57.2148 5.33203H58.7969C59.1875 5.33203 59.3828 5.57617 59.3828 6.06445V16.9141H65.0762C65.5645 16.9141 65.8086 17.1257 65.8086 17.5488V18.7012C65.8086 19.1243 65.5645 19.3359 65.0762 19.3359H57.2148Z" fill="white"/>
<path d="M67.4395 19.3359C66.9707 19.3359 66.8177 19.1211 66.9805 18.6914L71.7656 6.12305C71.9674 5.5957 72.2734 5.33203 72.6836 5.33203H74.0508C74.4609 5.33203 74.7669 5.5957 74.9688 6.12305L79.7539 18.6914C79.9167 19.1211 79.7637 19.3359 79.2949 19.3359H77.7422C77.3125 19.3359 77.013 19.1113 76.8438 18.6621L75.8477 16.0352H70.8867L69.8906 18.6621C69.7214 19.1113 69.4219 19.3359 68.9922 19.3359H67.4395ZM71.7949 13.6133H74.9395L73.7383 10.5078C73.5951 10.1432 73.5072 9.87956 73.4746 9.7168C73.4486 9.54753 73.4193 9.30013 73.3867 8.97461H73.3477C73.3151 9.30013 73.2826 9.54753 73.25 9.7168C73.224 9.87956 73.1393 10.1432 72.9961 10.5078L71.7949 13.6133Z" fill="white"/>
<path d="M80.7695 12.334C80.7695 10.0879 81.3392 8.30404 82.4785 6.98242C83.6178 5.66081 85.2617 5 87.4102 5C88.6471 5 89.6953 5.19206 90.5547 5.57617C91.4141 5.96029 92.0195 6.51693 92.3711 7.24609C92.6055 7.72786 92.5664 8.05339 92.2539 8.22266L91.082 8.84766C90.6719 9.06901 90.3333 8.94531 90.0664 8.47656C89.8971 8.17708 89.5814 7.9069 89.1191 7.66602C88.6634 7.42513 88.1263 7.30469 87.5078 7.30469C86.1406 7.30469 85.1836 7.73763 84.6367 8.60352C84.0898 9.46289 83.8164 10.7064 83.8164 12.334C83.8164 13.9616 84.0898 15.2083 84.6367 16.0742C85.1836 16.9336 86.1406 17.3633 87.5078 17.3633C88.2435 17.3633 88.862 17.1973 89.3633 16.8652C89.8711 16.5332 90.2227 16.2174 90.418 15.918C90.737 15.4297 91.0755 15.306 91.4336 15.5469L92.6055 16.3281C92.9245 16.543 92.957 16.8685 92.7031 17.3047C92.3255 17.9557 91.6777 18.5124 90.7598 18.9746C89.8418 19.4368 88.7253 19.668 87.4102 19.668C85.2943 19.668 83.6569 19.0072 82.498 17.6855C81.3457 16.3639 80.7695 14.5801 80.7695 12.334Z" fill="white"/>
<path d="M96.0234 19.3359C95.5677 19.3359 95.3398 19.0918 95.3398 18.6035V6.06445C95.3398 5.57617 95.5677 5.33203 96.0234 5.33203H104.402C104.891 5.33203 105.135 5.54362 105.135 5.9668V7.11914C105.135 7.54232 104.891 7.75391 104.402 7.75391H98.1914V10.8594H103.885C104.373 10.8594 104.617 11.071 104.617 11.4941V12.6465C104.617 13.0697 104.373 13.2812 103.885 13.2812H98.1914V16.9141H104.715C105.203 16.9141 105.447 17.1257 105.447 17.5488V18.7012C105.447 19.1243 105.203 19.3359 104.715 19.3359H96.0234Z" fill="white"/>
<defs>
<clipPath id="clip0_6_51">
<rect width="24" height="24" fill="white"/>
</clipPath>
</defs>
</svg>
