<svg width="264" height="60" viewBox="0 0 264 60" fill="none" xmlns="http://www.w3.org/2000/svg">
<g clip-path="url(#clip0_130_140)">
<path d="M22.6909 47.5C22.6909 48.8261 23.2177 50.0979 24.1554 51.0355C25.0931 51.9732 26.3648 52.5 27.6909 52.5C29.017 52.5 30.2888 51.9732 31.2265 51.0355C32.1641 50.0979 32.6909 48.8261 32.6909 47.5C32.6909 46.1739 32.1641 44.9021 31.2265 43.9645C30.2888 43.0268 29.017 42.5 27.6909 42.5C26.3648 42.5 25.0931 43.0268 24.1554 43.9645C23.2177 44.9021 22.6909 46.1739 22.6909 47.5Z" stroke="#9D38E0" stroke-width="2" stroke-linecap="round" stroke-linejoin="round"/>
<path d="M15.1909 40L22.6909 45" stroke="#9D38E0" stroke-width="2" stroke-linecap="round" stroke-linejoin="round"/>
<path d="M30.1909 42.5L50.1909 12.5" stroke="#9D38E0" stroke-width="2" stroke-linecap="round" stroke-linejoin="round"/>
<path d="M42.6909 25L47.6909 27.5" stroke="#9D38E0" stroke-width="2" stroke-linecap="round" stroke-linejoin="round"/>
<path d="M24.1709 11.7375L32.4359 16.9975C32.7972 17.2272 33.1095 17.5261 33.355 17.8769C33.6004 18.2277 33.7741 18.6236 33.8661 19.0417C33.9581 19.4599 33.9666 19.8921 33.891 20.3135C33.8155 20.735 33.6574 21.1373 33.4259 21.4975L25.6909 33.525C25.2262 34.2483 24.4939 34.7581 23.6543 34.9427C22.8146 35.1273 21.936 34.9717 21.2109 34.51L12.9459 29.25C12.5846 29.0203 12.2722 28.7214 12.0268 28.3706C11.7813 28.0198 11.6076 27.6239 11.5156 27.2057C11.4236 26.7876 11.4151 26.3554 11.4907 25.9339C11.5663 25.5125 11.7243 25.1101 11.9559 24.75L19.6909 12.725C20.1555 12.0017 20.8878 11.4919 21.7274 11.3073C22.5671 11.1227 23.4457 11.2758 24.1709 11.7375Z" stroke="#75518C" stroke-width="2" stroke-linecap="round" stroke-linejoin="round"/>
</g>
<path d="M66.8999 47.5098C65.7606 47.5098 65.1909 46.8994 65.1909 45.6787V14.3311C65.1909 13.1104 65.7606 12.5 66.8999 12.5H73.98C74.924 12.5 75.5994 13.151 76.0063 14.4531L82.6226 35.8643C82.9155 36.792 83.119 37.557 83.2329 38.1592C83.3468 38.7451 83.4445 39.445 83.5259 40.2588H83.6724C83.7537 39.445 83.8514 38.7451 83.9653 38.1592C84.0793 37.557 84.2827 36.792 84.5757 35.8643L91.1919 14.4531C91.5988 13.151 92.2743 12.5 93.2183 12.5H100.298C101.438 12.5 102.007 13.1104 102.007 14.3311V45.6787C102.007 46.8994 101.438 47.5098 100.298 47.5098H96.5874C95.4481 47.5098 94.8784 46.8994 94.8784 45.6787V25.5127C94.8784 24.5361 94.9191 23.5596 95.0005 22.583H94.8296L87.7739 45.5322C87.367 46.8506 86.6672 47.5098 85.6743 47.5098H81.5239C80.5311 47.5098 79.8312 46.8506 79.4243 45.5322L72.3687 22.583H72.1978C72.2791 23.5596 72.3198 24.5361 72.3198 25.5127V45.6787C72.3198 46.8994 71.7502 47.5098 70.6108 47.5098H66.8999Z" fill="#75518C"/>
<path d="M110.806 48.3398C109.667 48.3398 109.097 47.7295 109.097 46.5088V15.1611C109.097 13.9404 109.667 13.3301 110.806 13.3301H119.937C125.796 13.3301 129.857 14.2822 132.12 16.1865C134.398 18.0908 135.538 20.7926 135.538 24.292C135.538 27.7913 134.398 30.4932 132.12 32.3975C129.857 34.3018 125.796 35.2539 119.937 35.2539H116.226V46.5088C116.226 47.7295 115.656 48.3398 114.517 48.3398H110.806ZM116.226 29.2969H119.913C123.168 29.2969 125.381 28.9144 126.553 28.1494C127.725 27.3682 128.311 26.0824 128.311 24.292C128.311 22.5016 127.725 21.224 126.553 20.459C125.381 19.6777 123.168 19.2871 119.913 19.2871H116.226V29.2969Z" fill="#9D38E0"/>
<path d="M143.228 48.3398C142.089 48.3398 141.519 47.7295 141.519 46.5088V15.1611C141.519 13.9404 142.089 13.3301 143.228 13.3301H147.183C148.16 13.3301 148.648 13.9404 148.648 15.1611V42.2852H162.881C164.102 42.2852 164.712 42.8141 164.712 43.8721V46.7529C164.712 47.8109 164.102 48.3398 162.881 48.3398H143.228Z" fill="#9D38E0"/>
<path d="M168.79 48.3398C167.618 48.3398 167.235 47.8027 167.642 46.7285L179.605 15.3076C180.11 13.9893 180.875 13.3301 181.9 13.3301H185.318C186.343 13.3301 187.108 13.9893 187.613 15.3076L199.576 46.7285C199.983 47.8027 199.6 48.3398 198.428 48.3398H194.546C193.472 48.3398 192.723 47.7783 192.3 46.6553L189.81 40.0879H177.408L174.917 46.6553C174.494 47.7783 173.746 48.3398 172.671 48.3398H168.79ZM179.678 34.0332H187.54L184.537 26.2695C184.179 25.3581 183.959 24.6989 183.877 24.292C183.812 23.8688 183.739 23.2503 183.658 22.4365H183.56C183.479 23.2503 183.397 23.8688 183.316 24.292C183.251 24.6989 183.039 25.3581 182.681 26.2695L179.678 34.0332Z" fill="#9D38E0"/>
<path d="M202.115 30.835C202.115 25.2197 203.539 20.7601 206.387 17.4561C209.236 14.152 213.345 12.5 218.716 12.5C221.809 12.5 224.429 12.9801 226.578 13.9404C228.726 14.9007 230.24 16.2923 231.119 18.1152C231.705 19.3197 231.607 20.1335 230.826 20.5566L227.896 22.1191C226.871 22.6725 226.024 22.3633 225.357 21.1914C224.934 20.4427 224.144 19.7673 222.989 19.165C221.849 18.5628 220.507 18.2617 218.96 18.2617C215.542 18.2617 213.15 19.3441 211.783 21.5088C210.416 23.6572 209.732 26.766 209.732 30.835C209.732 34.904 210.416 38.0208 211.783 40.1855C213.15 42.334 215.542 43.4082 218.96 43.4082C220.8 43.4082 222.346 42.9932 223.599 42.1631C224.869 41.333 225.748 40.5436 226.236 39.7949C227.033 38.5742 227.88 38.265 228.775 38.8672L231.705 40.8203C232.502 41.3574 232.583 42.1712 231.949 43.2617C231.005 44.8893 229.385 46.2809 227.09 47.4365C224.795 48.5921 222.004 49.1699 218.716 49.1699C213.427 49.1699 209.333 47.5179 206.436 44.2139C203.555 40.9098 202.115 36.4502 202.115 30.835Z" fill="#9D38E0"/>
<path d="M240.25 48.3398C239.11 48.3398 238.541 47.7295 238.541 46.5088V15.1611C238.541 13.9404 239.11 13.3301 240.25 13.3301H261.197C262.417 13.3301 263.028 13.859 263.028 14.917V17.7979C263.028 18.8558 262.417 19.3848 261.197 19.3848H245.669V27.1484H259.903C261.124 27.1484 261.734 27.6774 261.734 28.7354V31.6162C261.734 32.6742 261.124 33.2031 259.903 33.2031H245.669V42.2852H261.978C263.199 42.2852 263.809 42.8141 263.809 43.8721V46.7529C263.809 47.8109 263.199 48.3398 261.978 48.3398H240.25Z" fill="#9D38E0"/>
<defs>
<clipPath id="clip0_130_140">
<rect width="60" height="60" fill="white" transform="translate(0.190918)"/>
</clipPath>
</defs>
</svg>
